<svg viewBox="0 0 26 21" fill="none" xmlns="http://www.w3.org/2000/svg">
<path d="M24.9776 14.2662C25.7543 11.8339 25.1152 9.07304 24.4361 7.15999C24.4316 7.08598 24.4088 7.01424 24.3695 6.95138C24.1387 6.32997 23.9256 5.81953 23.7436 5.45112C24.0786 5.31774 24.2996 4.99494 24.3029 4.63442V0.937042C24.3029 0.44674 23.9055 0.0493171 23.4152 0.0493171H12.5095C12.2644 0.0488733 12.0653 0.247224 12.0648 0.492403C12.0648 0.501558 12.0651 0.510712 12.0656 0.519811C12.2165 3.18299 12.0212 4.98951 11.4575 6.26339C11.4463 6.27604 11.4359 6.28941 11.4265 6.30334C11.4248 6.32548 11.4248 6.34778 11.4265 6.36992C11.2113 6.83364 10.9203 7.25814 10.5654 7.62605L10.5254 7.65268C10.5254 7.65268 10.5254 7.65268 10.5254 7.68375C10.005 8.18005 9.40488 8.58518 8.74996 8.88218C7.6089 9.38846 6.43788 9.82428 5.24345 10.1871L5.01708 10.2626C0.866963 11.6386 0.325451 14.1331 0.334328 15.3848C0.333219 15.4025 0.333219 15.4203 0.334328 15.438V18.6072C0.334994 18.7614 0.415611 18.9043 0.547382 18.9845C1.56449 19.6033 2.66239 20.0783 3.80977 20.396C4.04574 20.4623 4.29086 20.3248 4.35722 20.0888C4.3697 20.0444 4.3752 19.9982 4.37348 19.9521V19.85H5.02596V20.2939C5.02313 20.5138 5.18175 20.7026 5.3988 20.7377C5.78496 20.7999 6.17112 20.8487 6.5484 20.8798C6.67202 20.8902 6.79436 20.8483 6.88574 20.7644C6.97706 20.6797 7.02861 20.5605 7.02778 20.4359V19.8767H7.68025V20.5069C7.68025 20.7521 7.87899 20.9508 8.12412 20.9508C8.49696 20.9508 8.86981 20.9508 9.26928 20.8975C9.50048 20.879 9.67836 20.6856 9.67764 20.4537V19.8767H10.3301V20.2673C10.327 20.5124 10.5231 20.7137 10.7682 20.7168C10.7939 20.7172 10.8196 20.7153 10.845 20.7111C11.6598 20.5863 12.4629 20.3949 13.2463 20.1385L13.3173 20.1075C16.4243 18.332 18.3951 19.7923 18.475 19.8545C18.5524 19.9146 18.6477 19.9473 18.7457 19.9477H19.2961C19.5413 19.9477 19.74 19.7489 19.74 19.5038V18.7537H20.3747V19.4949C20.3747 19.7401 20.5735 19.9388 20.8186 19.9388H22.2478C22.4929 19.9388 22.6917 19.7401 22.6917 19.4949V18.7537H23.3486V19.4949C23.3486 19.7401 23.5473 19.9388 23.7925 19.9388H24.8888C25.1339 19.9388 25.3327 19.7401 25.3327 19.4949V14.7101C25.337 14.4958 25.1876 14.3091 24.9776 14.2662ZM14.4447 0.945919H23.393V4.6211H14.4447V0.945919ZM8.86537 9.79654L8.86981 9.82317C9.23366 10.1186 9.56944 10.447 9.87293 10.8041C9.79243 10.938 9.75093 11.0917 9.75309 11.248C9.75004 11.7162 10.1272 12.0982 10.5953 12.1012C11.0635 12.1043 11.4455 11.7272 11.4486 11.259C11.4515 10.8179 11.1156 10.4483 10.6763 10.4091C10.3956 10.0263 10.0757 9.6737 9.72202 9.35711C10.1187 9.13135 10.4918 8.8667 10.8361 8.56704C11.2666 8.9709 11.6671 9.40555 12.0345 9.86756C11.8801 10.3096 12.1133 10.7931 12.5553 10.9475C12.9973 11.1019 13.4808 10.8688 13.6352 10.4268C13.7896 9.98479 13.5565 9.50131 13.1145 9.34685C13.0228 9.31478 12.9263 9.29875 12.8291 9.29941H12.7225C12.3332 8.80928 11.909 8.34794 11.4531 7.919C11.6646 7.65851 11.8518 7.37921 12.0124 7.08454C12.6995 7.44223 13.3636 7.84249 14.0009 8.28297C13.9965 8.75607 14.3765 9.14312 14.8496 9.1475C15.3227 9.15188 15.7097 8.77188 15.7141 8.29878C15.7185 7.82568 15.3385 7.43863 14.8654 7.43425C14.7303 7.43297 14.5967 7.46371 14.4758 7.52396C13.8051 7.06989 13.1069 6.65782 12.3852 6.29002C12.869 5.00282 13.0776 3.29395 12.98 0.963674H13.5614V4.63885C13.5614 5.12916 13.9589 5.52658 14.4492 5.52658H22.7671C22.8825 5.76183 23.0778 6.17018 23.2909 6.70282H23.1089C20.4125 6.72229 18.2424 8.92396 18.2618 11.6204C18.2729 13.1527 19.0026 14.5909 20.2327 15.5046C16.6418 16.45 11.24 17.573 6.69488 17.2801C7.53378 13.9289 6.53065 11.8649 5.87817 10.9595C6.89423 10.6262 7.89142 10.238 8.86537 9.79654ZM4.98601 11.2125C5.46538 11.7762 6.71707 13.6715 5.79828 17.1558C4.19893 17.0301 2.64558 16.5607 1.24425 15.7798C1.22832 15.6784 1.21795 15.5761 1.21318 15.4735V15.4425C1.17767 14.497 1.53276 12.4508 4.98601 11.2125ZM24.2363 19.0511V18.3098C24.2363 18.0647 24.0376 17.866 23.7925 17.866H22.2523C22.0071 17.866 21.8084 18.0647 21.8084 18.3098V19.0511H21.2624V18.3098C21.2624 18.0647 21.0637 17.866 20.8186 17.866H19.2873C19.0421 17.866 18.8434 18.0647 18.8434 18.3098V19.0333C18.2397 18.656 16.0337 17.5597 12.9045 19.3085C12.3478 19.4923 11.78 19.6405 11.2045 19.7524V19.4461C11.2045 19.201 11.0058 19.0022 10.7607 19.0022H9.22933C8.98421 19.0022 8.78547 19.201 8.78547 19.4461V20.0542H8.5591V19.4328C8.5591 19.1877 8.36036 18.9889 8.11524 18.9889H6.57504C6.32991 18.9889 6.13117 19.1877 6.13117 19.4328V19.961L5.9048 19.9299V19.4328C5.9048 19.1877 5.70606 18.9889 5.46094 18.9889H3.92074C3.69498 18.9873 3.50395 19.1554 3.47688 19.3795C2.68907 19.1201 1.93046 18.7795 1.21318 18.3631V16.7741C3.14842 17.7994 5.6518 18.1855 8.31498 18.1855C15.3901 18.1855 23.4862 15.478 24.4405 15.154L24.4449 19.0511H24.2363ZM24.0188 14.3683C23.6416 14.4926 22.7139 14.8122 21.4311 15.154C19.4452 14.1928 18.6145 11.8038 19.5756 9.8179C20.2331 8.45946 21.5999 7.58749 23.1089 7.56391C23.2839 7.56147 23.4588 7.57034 23.6327 7.59054L23.6371 7.60386C24.2896 9.48583 24.8755 12.1712 24.0188 14.3683Z" fill="#2D383F"/>
<path d="M16.1536 1.48303C15.4402 1.48303 14.8619 2.06132 14.8619 2.77466C14.8644 3.48701 15.4412 4.06386 16.1536 4.0663C16.8669 4.0663 17.4452 3.48801 17.4452 2.77466C17.4452 2.06132 16.867 1.48303 16.1536 1.48303ZM16.1536 3.17858C15.9305 3.17858 15.7496 2.99776 15.7496 2.77466C15.7496 2.55157 15.9305 2.37075 16.1536 2.37075C16.3767 2.37075 16.5575 2.55157 16.5575 2.77466C16.5575 2.99776 16.3767 3.17858 16.1536 3.17858Z" fill="#2D383F"/>
</svg>
