<svg width="200" height="60" viewBox="0 0 200 60" fill="none" xmlns="http://www.w3.org/2000/svg">
<path d="M44.7314 36.2445L48.4995 32.359L52.7857 36.2445H60.1334L48.4524 25.0044L36.8656 36.2445H44.7314Z" fill="#2D383F"/>
<path d="M55.5178 18.2048L49.9599 23.7555L53.6337 27.4559L55.5178 25.6057L65.8328 35.6894C63.4778 41.8414 57.4489 46.2357 50.3367 46.2357C41.1991 46.2357 33.8043 38.9736 33.8043 30C33.8514 21.0264 41.2462 13.7643 50.3838 13.7643C58.4851 13.7643 65.2676 19.5463 66.6336 27.0859L71.6262 32.2665C71.7204 31.5264 71.7675 30.7401 71.7675 30C71.7675 24.4031 69.5538 19.13 65.5031 15.152C61.4525 11.174 56.083 9 50.3838 9C44.6375 9 39.3151 11.174 35.2644 15.152C31.2137 19.13 29 24.3568 29 30C29 35.6432 31.2137 40.87 35.2644 44.848C39.3151 48.826 44.6846 51 50.3838 51C56.083 51 61.4525 48.826 65.5031 44.848C67.9995 42.3965 69.7893 39.4824 70.7784 36.2907C70.9668 35.7357 71.1081 35.1344 71.2494 34.5793L66.9162 30.0925L55.5178 18.2048Z" fill="#2D383F"/>
<path d="M89.4115 22.4945H92.5561L90.8408 30.9634H96.1453L95.6371 33.4121H87.1881L89.4115 22.4945Z" fill="#2D383F"/>
<path d="M99.1049 22.4945H102.249L100.026 33.4121H96.8815L99.1049 22.4945Z" fill="#2D383F"/>
<path d="M107.139 24.8808L106.647 27.2826H111.554L111.062 29.6689H106.17L105.408 33.4121H102.263L104.487 22.4945H113.19L112.697 24.8808H107.139Z" fill="#2D383F"/>
<path d="M117.281 24.8808L116.916 26.7212H121.855L121.394 29.0295H116.439L116.042 31.0258H121.871L121.363 33.4121H112.453L114.676 22.4945H123.38L122.887 24.8808H117.281Z" fill="#2D383F"/>
<path d="M127.205 24.9431H123.79L124.299 22.4945H134.256L133.748 24.9431H130.35L128.618 33.4121H125.474L127.205 24.9431Z" fill="#2D383F"/>
<path d="M139.053 33.6305C137.93 33.6305 136.951 33.4277 136.115 33.0222C135.289 32.6167 134.648 32.05 134.193 31.3222C133.748 30.5943 133.526 29.7625 133.526 28.8267C133.526 27.579 133.817 26.456 134.399 25.4578C134.992 24.4596 135.813 23.6798 136.861 23.1183C137.92 22.5569 139.122 22.2761 140.466 22.2761C141.588 22.2761 142.563 22.4789 143.388 22.8844C144.225 23.2899 144.865 23.8566 145.31 24.5844C145.765 25.3123 145.993 26.1441 145.993 27.0799C145.993 28.3276 145.697 29.4506 145.104 30.4488C144.521 31.4469 143.701 32.2268 142.642 32.7882C141.594 33.3497 140.397 33.6305 139.053 33.6305ZM139.323 31.0726C140.021 31.0726 140.636 30.9011 141.165 30.5579C141.694 30.2148 142.102 29.7573 142.388 29.1854C142.674 28.6032 142.817 27.9637 142.817 27.267C142.817 26.5288 142.584 25.9413 142.118 25.5046C141.663 25.0575 141.022 24.834 140.196 24.834C139.497 24.834 138.883 25.0055 138.354 25.3487C137.825 25.6918 137.417 26.1545 137.131 26.7368C136.845 27.3086 136.702 27.9429 136.702 28.6395C136.702 29.3778 136.93 29.9705 137.385 30.4176C137.851 30.8543 138.497 31.0726 139.323 31.0726Z" fill="#2D383F"/>
<path d="M151.896 33.6305C150.933 33.6305 150.102 33.4745 149.403 33.1626C148.704 32.8402 148.169 32.3827 147.799 31.7901C147.428 31.1974 147.243 30.5007 147.243 29.7001C147.243 29.3674 147.285 28.9827 147.37 28.546L148.609 22.4945H151.753L150.53 28.4992C150.467 28.8111 150.435 29.097 150.435 29.357C150.435 30.5007 151.049 31.0726 152.277 31.0726C152.944 31.0726 153.469 30.8751 153.85 30.4799C154.241 30.0744 154.533 29.4142 154.723 28.4992L155.946 22.4945H159.043L157.788 28.6863C157.111 31.9824 155.147 33.6305 151.896 33.6305Z" fill="#2D383F"/>
<path d="M170.416 25.9725C170.416 26.9707 170.146 27.8337 169.606 28.5616C169.066 29.279 168.309 29.8041 167.335 30.1368L169.225 33.4121H165.938L164.286 30.5111H162.698L162.11 33.4121H158.966L161.189 22.4945H165.938C167.357 22.4945 168.458 22.8012 169.241 23.4147C170.025 24.0281 170.416 24.8808 170.416 25.9725ZM167.24 26.2689C167.24 25.8218 167.087 25.489 166.779 25.2707C166.472 25.0419 166.044 24.9275 165.493 24.9275H163.841L163.174 28.1249H165.048C165.747 28.1249 166.287 27.9637 166.668 27.6414C167.049 27.319 167.24 26.8615 167.24 26.2689Z" fill="#2D383F"/>
<path d="M89.2817 43.7063C88.8987 43.7063 88.5507 43.6231 88.2376 43.4567C87.9283 43.2867 87.6852 43.0553 87.5085 42.7623C87.3354 42.4694 87.2488 42.1403 87.2488 41.775C87.2488 41.4097 87.3354 41.0806 87.5085 40.7877C87.6852 40.4947 87.9283 40.2651 88.2376 40.0987C88.5507 39.9287 88.8987 39.8437 89.2817 39.8437C89.6647 39.8437 90.009 39.9269 90.3147 40.0933C90.624 40.2596 90.8671 40.4911 91.0439 40.7877C91.2206 41.0806 91.309 41.4097 91.309 41.775C91.309 42.1403 91.2206 42.4712 91.0439 42.7678C90.8671 43.0607 90.624 43.2904 90.3147 43.4567C90.009 43.6231 89.6647 43.7063 89.2817 43.7063ZM89.2817 43.3482C89.5873 43.3482 89.8635 43.2813 90.1103 43.1475C90.357 43.0101 90.5504 42.822 90.6903 42.5833C90.8303 42.341 90.9002 42.0716 90.9002 41.775C90.9002 41.4784 90.8303 41.2108 90.6903 40.9721C90.5504 40.7298 90.357 40.5417 90.1103 40.4079C89.8635 40.2705 89.5873 40.2018 89.2817 40.2018C88.976 40.2018 88.698 40.2705 88.4475 40.4079C88.2008 40.5417 88.0056 40.7298 87.862 40.9721C87.7221 41.2108 87.6521 41.4784 87.6521 41.775C87.6521 42.0716 87.7221 42.341 87.862 42.5833C88.0056 42.822 88.2008 43.0101 88.4475 43.1475C88.698 43.2813 88.976 43.3482 89.2817 43.3482Z" fill="#2D383F"/>
<path d="M93.6876 40.7985C93.9601 40.7985 94.2068 40.86 94.4278 40.983C94.6488 41.1023 94.8219 41.2723 94.9471 41.4929C95.0723 41.7135 95.1349 41.9649 95.1349 42.247C95.1349 42.5327 95.0723 42.7858 94.9471 43.0065C94.8219 43.2271 94.6488 43.3989 94.4278 43.5218C94.2105 43.6412 93.9638 43.7008 93.6876 43.7008C93.4519 43.7008 93.2383 43.6538 93.0468 43.5598C92.859 43.4622 92.7043 43.3211 92.5828 43.1367V44.7262H92.1906V40.8202H92.5662V41.3844C92.684 41.1963 92.8387 41.0517 93.0302 40.9504C93.2254 40.8492 93.4445 40.7985 93.6876 40.7985ZM93.66 43.3591C93.8625 43.3591 94.0466 43.3139 94.2124 43.2235C94.3781 43.1294 94.507 42.9974 94.5991 42.8274C94.6948 42.6575 94.7427 42.464 94.7427 42.247C94.7427 42.03 94.6948 41.8383 94.5991 41.6719C94.507 41.5019 94.3781 41.3699 94.2124 41.2759C94.0466 41.1819 93.8625 41.1349 93.66 41.1349C93.4537 41.1349 93.2678 41.1819 93.102 41.2759C92.94 41.3699 92.8111 41.5019 92.7154 41.6719C92.6233 41.8383 92.5772 42.03 92.5772 42.247C92.5772 42.464 92.6233 42.6575 92.7154 42.8274C92.8111 42.9974 92.94 43.1294 93.102 43.2235C93.2678 43.3139 93.4537 43.3591 93.66 43.3591Z" fill="#2D383F"/>
<path d="M98.0325 41.162H96.3698V43.6737H95.9776V40.8202H98.0325V41.162Z" fill="#2D383F"/>
<path d="M99.5992 40.7985C99.9785 40.7985 100.269 40.8925 100.472 41.0806C100.675 41.2651 100.776 41.5399 100.776 41.9052V43.6737H100.4V43.2289C100.312 43.3772 100.181 43.4929 100.008 43.5761C99.8386 43.6593 99.636 43.7008 99.4003 43.7008C99.0762 43.7008 98.8185 43.6249 98.627 43.473C98.4355 43.3211 98.3397 43.1204 98.3397 42.8708C98.3397 42.6285 98.4281 42.4332 98.6049 42.2849C98.7853 42.1367 99.0707 42.0625 99.4611 42.0625H100.384V41.8889C100.384 41.643 100.314 41.4567 100.174 41.3302C100.034 41.2 99.8294 41.1349 99.5605 41.1349C99.3764 41.1349 99.1996 41.1656 99.0302 41.2271C98.8608 41.285 98.7153 41.3663 98.5938 41.4712L98.417 41.1837C98.5643 41.0607 98.7411 40.9667 98.9473 40.9016C99.1536 40.8329 99.3709 40.7985 99.5992 40.7985ZM99.4611 43.3971C99.682 43.3971 99.8717 43.3482 100.03 43.2506C100.188 43.1493 100.306 43.0047 100.384 42.8166V42.35H99.4721C98.975 42.35 98.7264 42.52 98.7264 42.86C98.7264 43.0263 98.7908 43.1584 98.9197 43.256C99.0486 43.35 99.2291 43.3971 99.4611 43.3971Z" fill="#2D383F"/>
<path d="M101.82 40.8202H102.212V42.0842H104.041V40.8202H104.433V43.6737H104.041V42.4151H102.212V43.6737H101.82V40.8202Z" fill="#2D383F"/>
<path d="M105.548 40.8202H105.94V43.0878L107.879 40.8202H108.227V43.6737H107.835V41.4061L105.901 43.6737H105.548V40.8202Z" fill="#2D383F"/>
<path d="M110.706 42.1873C110.912 42.2343 111.07 42.3157 111.181 42.4314C111.295 42.5471 111.352 42.6882 111.352 42.8546C111.352 43.0209 111.293 43.1692 111.175 43.2994C111.061 43.4296 110.904 43.5309 110.706 43.6032C110.507 43.6719 110.288 43.7063 110.048 43.7063C109.838 43.7063 109.632 43.6773 109.43 43.6195C109.227 43.558 109.05 43.4694 108.899 43.3537L109.032 43.0661C109.164 43.1638 109.319 43.2397 109.496 43.294C109.673 43.3482 109.851 43.3754 110.032 43.3754C110.3 43.3754 110.52 43.3265 110.689 43.2289C110.862 43.1276 110.949 42.992 110.949 42.822C110.949 42.6701 110.879 42.5526 110.739 42.4694C110.599 42.3826 110.407 42.3392 110.164 42.3392H109.667V42.0571H110.142C110.359 42.0571 110.534 42.0173 110.667 41.9377C110.799 41.8546 110.866 41.7443 110.866 41.6068C110.866 41.4549 110.79 41.3356 110.639 41.2488C110.492 41.162 110.299 41.1186 110.059 41.1186C109.746 41.1186 109.437 41.1963 109.131 41.3519L109.021 41.0535C109.367 40.8763 109.726 40.7877 110.098 40.7877C110.319 40.7877 110.518 40.8202 110.695 40.8853C110.875 40.9468 111.015 41.0354 111.114 41.1511C111.217 41.2669 111.269 41.4007 111.269 41.5526C111.269 41.6972 111.217 41.8256 111.114 41.9377C111.015 42.0499 110.879 42.133 110.706 42.1873Z" fill="#2D383F"/>
<path d="M113.242 40.7985C113.621 40.7985 113.912 40.8925 114.115 41.0806C114.317 41.2651 114.419 41.5399 114.419 41.9052V43.6737H114.043V43.2289C113.955 43.3772 113.824 43.4929 113.651 43.5761C113.481 43.6593 113.279 43.7008 113.043 43.7008C112.719 43.7008 112.461 43.6249 112.27 43.473C112.078 43.3211 111.983 43.1204 111.983 42.8708C111.983 42.6285 112.071 42.4332 112.248 42.2849C112.428 42.1367 112.714 42.0625 113.104 42.0625H114.027V41.8889C114.027 41.643 113.957 41.4567 113.817 41.3302C113.677 41.2 113.472 41.1349 113.203 41.1349C113.019 41.1349 112.843 41.1656 112.673 41.2271C112.504 41.285 112.358 41.3663 112.237 41.4712L112.06 41.1837C112.207 41.0607 112.384 40.9667 112.59 40.9016C112.796 40.8329 113.014 40.7985 113.242 40.7985ZM113.104 43.3971C113.325 43.3971 113.515 43.3482 113.673 43.2506C113.831 43.1493 113.949 43.0047 114.027 42.8166V42.35H113.115C112.618 42.35 112.369 42.52 112.369 42.86C112.369 43.0263 112.434 43.1584 112.563 43.256C112.692 43.35 112.872 43.3971 113.104 43.3971Z" fill="#2D383F"/>
<path d="M118.49 43.3374V44.3898H118.12V43.6737H115.463V40.8202H115.855V43.3374H117.628V40.8202H118.02V43.3374H118.49Z" fill="#2D383F"/>
<path d="M119.239 40.8202H119.631V43.0878L121.57 40.8202H121.918V43.6737H121.526V41.4061L119.593 43.6737H119.239V40.8202Z" fill="#2D383F"/>
<path d="M125.274 40.8202V43.6737H124.915V42.7298H123.893L123.219 43.6737H122.794L123.517 42.6755C123.293 42.6141 123.12 42.5092 122.998 42.3609C122.876 42.2126 122.816 42.0245 122.816 41.7967C122.816 41.4784 122.926 41.2361 123.147 41.0698C123.368 40.9034 123.67 40.8202 124.053 40.8202H125.274ZM123.213 41.8076C123.213 42.2307 123.488 42.4423 124.037 42.4423H124.915V41.162H124.064C123.497 41.162 123.213 41.3772 123.213 41.8076Z" fill="#2D383F"/>
<path d="M130.445 40.8202V43.6737H130.053V41.162H128.23V43.6737H127.838V40.8202H130.445Z" fill="#2D383F"/>
<path d="M132.759 43.7008C132.479 43.7008 132.227 43.6394 132.002 43.5164C131.778 43.3898 131.601 43.2162 131.472 42.9956C131.343 42.775 131.279 42.5254 131.279 42.247C131.279 41.9685 131.343 41.7189 131.472 41.4983C131.601 41.2777 131.778 41.1059 132.002 40.983C132.227 40.86 132.479 40.7985 132.759 40.7985C133.039 40.7985 133.291 40.86 133.516 40.983C133.74 41.1059 133.915 41.2777 134.041 41.4983C134.169 41.7189 134.234 41.9685 134.234 42.247C134.234 42.5254 134.169 42.775 134.041 42.9956C133.915 43.2162 133.74 43.3898 133.516 43.5164C133.291 43.6394 133.039 43.7008 132.759 43.7008ZM132.759 43.3591C132.965 43.3591 133.149 43.3139 133.311 43.2235C133.477 43.1294 133.606 42.9974 133.698 42.8274C133.79 42.6575 133.836 42.464 133.836 42.247C133.836 42.03 133.79 41.8365 133.698 41.6665C133.606 41.4965 133.477 41.3663 133.311 41.2759C133.149 41.1819 132.965 41.1349 132.759 41.1349C132.553 41.1349 132.367 41.1819 132.201 41.2759C132.039 41.3663 131.91 41.4965 131.814 41.6665C131.722 41.8365 131.676 42.03 131.676 42.247C131.676 42.464 131.722 42.6575 131.814 42.8274C131.91 42.9974 132.039 43.1294 132.201 43.2235C132.367 43.3139 132.553 43.3591 132.759 43.3591Z" fill="#2D383F"/>
<path d="M136.787 43.6737L135.865 42.4802L134.936 43.6737H134.495L135.644 42.209L134.55 40.8202H134.992L135.865 41.9377L136.737 40.8202H137.168L136.074 42.209L137.234 43.6737H136.787Z" fill="#2D383F"/>
<path d="M138.974 43.7008C138.694 43.7008 138.441 43.6394 138.217 43.5164C137.992 43.3898 137.815 43.2162 137.686 42.9956C137.558 42.775 137.493 42.5254 137.493 42.247C137.493 41.9685 137.558 41.7189 137.686 41.4983C137.815 41.2777 137.992 41.1059 138.217 40.983C138.441 40.86 138.694 40.7985 138.974 40.7985C139.253 40.7985 139.506 40.86 139.73 40.983C139.955 41.1059 140.13 41.2777 140.255 41.4983C140.384 41.7189 140.448 41.9685 140.448 42.247C140.448 42.5254 140.384 42.775 140.255 42.9956C140.13 43.2162 139.955 43.3898 139.73 43.5164C139.506 43.6394 139.253 43.7008 138.974 43.7008ZM138.974 43.3591C139.18 43.3591 139.364 43.3139 139.526 43.2235C139.692 43.1294 139.821 42.9974 139.913 42.8274C140.005 42.6575 140.051 42.464 140.051 42.247C140.051 42.03 140.005 41.8365 139.913 41.6665C139.821 41.4965 139.692 41.3663 139.526 41.2759C139.364 41.1819 139.18 41.1349 138.974 41.1349C138.767 41.1349 138.581 41.1819 138.416 41.2759C138.254 41.3663 138.125 41.4965 138.029 41.6665C137.937 41.8365 137.891 42.03 137.891 42.247C137.891 42.464 137.937 42.6575 138.029 42.8274C138.125 42.9974 138.254 43.1294 138.416 43.2235C138.581 43.3139 138.767 43.3591 138.974 43.3591Z" fill="#2D383F"/>
<path d="M144.104 43.3374V44.3627H143.734V43.6737H141.132V44.3627H140.762V43.3374H140.928C141.123 43.3265 141.256 43.1855 141.326 42.9142C141.396 42.643 141.444 42.2632 141.469 41.775L141.508 40.8202H143.651V43.3374H144.104ZM141.828 41.7967C141.81 42.2018 141.775 42.5363 141.723 42.8003C141.672 43.0607 141.58 43.2397 141.447 43.3374H143.259V41.162H141.862L141.828 41.7967Z" fill="#2D383F"/>
<path d="M146.067 43.7008C145.788 43.7008 145.535 43.6394 145.311 43.5164C145.086 43.3898 144.909 43.2162 144.78 42.9956C144.651 42.775 144.587 42.5254 144.587 42.247C144.587 41.9685 144.651 41.7189 144.78 41.4983C144.909 41.2777 145.086 41.1059 145.311 40.983C145.535 40.86 145.788 40.7985 146.067 40.7985C146.347 40.7985 146.6 40.86 146.824 40.983C147.049 41.1059 147.224 41.2777 147.349 41.4983C147.478 41.7189 147.542 41.9685 147.542 42.247C147.542 42.5254 147.478 42.775 147.349 42.9956C147.224 43.2162 147.049 43.3898 146.824 43.5164C146.6 43.6394 146.347 43.7008 146.067 43.7008ZM146.067 43.3591C146.274 43.3591 146.458 43.3139 146.62 43.2235C146.786 43.1294 146.914 42.9974 147.006 42.8274C147.099 42.6575 147.145 42.464 147.145 42.247C147.145 42.03 147.099 41.8365 147.006 41.6665C146.914 41.4965 146.786 41.3663 146.62 41.2759C146.458 41.1819 146.274 41.1349 146.067 41.1349C145.861 41.1349 145.675 41.1819 145.509 41.2759C145.347 41.3663 145.219 41.4965 145.123 41.6665C145.031 41.8365 144.985 42.03 144.985 42.247C144.985 42.464 145.031 42.6575 145.123 42.8274C145.219 42.9974 145.347 43.1294 145.509 43.2235C145.675 43.3139 145.861 43.3591 146.067 43.3591Z" fill="#2D383F"/>
<path d="M150.231 42.1981C150.625 42.2886 150.822 42.5218 150.822 42.898C150.822 43.1475 150.728 43.3392 150.54 43.473C150.353 43.6068 150.073 43.6737 149.701 43.6737H148.381V40.8202H149.662C149.994 40.8202 150.253 40.8835 150.441 41.0101C150.629 41.1367 150.723 41.3175 150.723 41.5526C150.723 41.7081 150.679 41.8419 150.59 41.954C150.505 42.0625 150.386 42.1439 150.231 42.1981ZM148.762 42.0896H149.635C149.859 42.0896 150.03 42.0481 150.148 41.9649C150.27 41.8817 150.331 41.7605 150.331 41.6014C150.331 41.4423 150.27 41.3229 150.148 41.2434C150.03 41.1638 149.859 41.124 149.635 41.124H148.762V42.0896ZM149.684 43.3699C149.935 43.3699 150.122 43.3301 150.248 43.2506C150.373 43.171 150.436 43.0462 150.436 42.8763C150.436 42.7063 150.378 42.5815 150.264 42.5019C150.15 42.4188 149.97 42.3772 149.723 42.3772H148.762V43.3699H149.684Z" fill="#2D383F"/>
<path d="M155.038 42.1981C155.432 42.2886 155.629 42.5218 155.629 42.898C155.629 43.1475 155.535 43.3392 155.347 43.473C155.159 43.6068 154.879 43.6737 154.507 43.6737H153.187V40.8202H154.469C154.8 40.8202 155.06 40.8835 155.248 41.0101C155.435 41.1367 155.529 41.3175 155.529 41.5526C155.529 41.7081 155.485 41.8419 155.397 41.954C155.312 42.0625 155.192 42.1439 155.038 42.1981ZM153.568 42.0896H154.441C154.666 42.0896 154.837 42.0481 154.955 41.9649C155.076 41.8817 155.137 41.7605 155.137 41.6014C155.137 41.4423 155.076 41.3229 154.955 41.2434C154.837 41.1638 154.666 41.124 154.441 41.124H153.568V42.0896ZM154.491 43.3699C154.741 43.3699 154.929 43.3301 155.054 43.2506C155.179 43.171 155.242 43.0462 155.242 42.8763C155.242 42.7063 155.185 42.5815 155.071 42.5019C154.957 42.4188 154.776 42.3772 154.529 42.3772H153.568V43.3699H154.491Z" fill="#2D383F"/>
<path d="M160.049 41.162H158.386V43.6737H157.994V40.8202H160.049V41.162Z" fill="#2D383F"/>
<path d="M161.679 43.7008C161.399 43.7008 161.147 43.6394 160.923 43.5164C160.698 43.3898 160.521 43.2162 160.392 42.9956C160.263 42.775 160.199 42.5254 160.199 42.247C160.199 41.9685 160.263 41.7189 160.392 41.4983C160.521 41.2777 160.698 41.1059 160.923 40.983C161.147 40.86 161.399 40.7985 161.679 40.7985C161.959 40.7985 162.211 40.86 162.436 40.983C162.661 41.1059 162.836 41.2777 162.961 41.4983C163.09 41.7189 163.154 41.9685 163.154 42.247C163.154 42.5254 163.09 42.775 162.961 42.9956C162.836 43.2162 162.661 43.3898 162.436 43.5164C162.211 43.6394 161.959 43.7008 161.679 43.7008ZM161.679 43.3591C161.886 43.3591 162.07 43.3139 162.232 43.2235C162.397 43.1294 162.526 42.9974 162.618 42.8274C162.71 42.6575 162.757 42.464 162.757 42.247C162.757 42.03 162.71 41.8365 162.618 41.6665C162.526 41.4965 162.397 41.3663 162.232 41.2759C162.07 41.1819 161.886 41.1349 161.679 41.1349C161.473 41.1349 161.287 41.1819 161.121 41.2759C160.959 41.3663 160.83 41.4965 160.735 41.6665C160.643 41.8365 160.597 42.03 160.597 42.247C160.597 42.464 160.643 42.6575 160.735 42.8274C160.83 42.9974 160.959 43.1294 161.121 43.2235C161.287 43.3139 161.473 43.3591 161.679 43.3591Z" fill="#2D383F"/>
<path d="M165.49 40.7985C165.762 40.7985 166.009 40.86 166.23 40.983C166.451 41.1023 166.624 41.2723 166.749 41.4929C166.874 41.7135 166.937 41.9649 166.937 42.247C166.937 42.5327 166.874 42.7858 166.749 43.0065C166.624 43.2271 166.451 43.3989 166.23 43.5218C166.012 43.6412 165.766 43.7008 165.49 43.7008C165.254 43.7008 165.04 43.6538 164.849 43.5598C164.661 43.4622 164.506 43.3211 164.385 43.1367V44.7262H163.992V40.8202H164.368V41.3844C164.486 41.1963 164.641 41.0517 164.832 40.9504C165.027 40.8492 165.246 40.7985 165.49 40.7985ZM165.462 43.3591C165.664 43.3591 165.849 43.3139 166.014 43.2235C166.18 43.1294 166.309 42.9974 166.401 42.8274C166.497 42.6575 166.545 42.464 166.545 42.247C166.545 42.03 166.497 41.8383 166.401 41.6719C166.309 41.5019 166.18 41.3699 166.014 41.2759C165.849 41.1819 165.664 41.1349 165.462 41.1349C165.256 41.1349 165.07 41.1819 164.904 41.2759C164.742 41.3699 164.613 41.5019 164.517 41.6719C164.425 41.8383 164.379 42.03 164.379 42.247C164.379 42.464 164.425 42.6575 164.517 42.8274C164.613 42.9974 164.742 43.1294 164.904 43.2235C165.07 43.3139 165.256 43.3591 165.462 43.3591Z" fill="#2D383F"/>
<path d="M169 41.8293C169.365 41.8329 169.643 41.9124 169.834 42.0679C170.026 42.2235 170.122 42.4477 170.122 42.7406C170.122 43.0444 170.019 43.2777 169.812 43.4404C169.606 43.6032 169.311 43.6828 168.928 43.6791L167.779 43.6737V40.8202H168.172V41.8184L169 41.8293ZM170.608 40.8202H171V43.6737H170.608V40.8202ZM168.906 43.3862C169.175 43.3898 169.378 43.3374 169.514 43.2289C169.654 43.1168 169.724 42.954 169.724 42.7406C169.724 42.5309 169.656 42.3754 169.52 42.2741C169.383 42.1728 169.179 42.1204 168.906 42.1168L168.172 42.1059V43.3754L168.906 43.3862Z" fill="#2D383F"/>
</svg>
